PathFileType	4	(X/Y/Z)	/Users/itak/Documents/Research/Walk-IL/dataset/trc/00150_00007.trc
DataRate	CameraRate	NumFrames	NumMarkers	Units	OrigDataRate	OrigDataStartFrame	OrigNumFrames
100.000000	100.000000	4	53	mm	100.000000	278	557
Frame#	Time	RPSI			LPSI			L3			STRN			T10			C7			CLAV			RBAK			LBAK			LSHO			LUPA			LAEL			LAOL			LWTS			LWPS			LFRA			LIFD			LHPS			LHTS			RSHO			RUPA			RAEL			RAOL			RWTS			RWPS			RFRA			RIFD			RHTS			RHPS			RBHD			LFHD			RFHD			LBHD			LHIP			RHIP			RASI			LASI			LKNE			LTHI			LANK			LTIP			LTOE			LMT1			LMT5			LHEE			RKNE			RTHI			RANK			RTIP			RTOE			RMT1			RMT5			RHEE			
		X1	Y1	Z1	X2	Y2	Z2	X3	Y3	Z3	X4	Y4	Z4	X5	Y5	Z5	X6	Y6	Z6	X7	Y7	Z7	X8	Y8	Z8	X9	Y9	Z9	X10	Y10	Z10	X11	Y11	Z11	X12	Y12	Z12	X13	Y13	Z13	X14	Y14	Z14	X15	Y15	Z15	X16	Y16	Z16	X17	Y17	Z17	X18	Y18	Z18	X19	Y19	Z19	X20	Y20	Z20	X21	Y21	Z21	X22	Y22	Z22	X23	Y23	Z23	X24	Y24	Z24	X25	Y25	Z25	X26	Y26	Z26	X27	Y27	Z27	X28	Y28	Z28	X29	Y29	Z29	X30	Y30	Z30	X31	Y31	Z31	X32	Y32	Z32	X33	Y33	Z33	X34	Y34	Z34	X35	Y35	Z35	X36	Y36	Z36	X37	Y37	Z37	X38	Y38	Z38	X39	Y39	Z39	X40	Y40	Z40	X41	Y41	Z41	X42	Y42	Z42	X43	Y43	Z43	X44	Y44	Z44	X45	Y45	Z45	X46	Y46	Z46	X47	Y47	Z47	X48	Y48	Z48	X49	Y49	Z49	X50	Y50	Z50	X51	Y51	Z51	X52	Y52	Z52	X53	Y53	Z53	

279	2.78	-310.7326049804688	1112.874633789062	-376.1809387207031	-225.1276245117188	1127.2216796875	-480.0689086914062	-271.2953491210938	1158.387084960938	-434.3213195800781	-103.5098342895508	1355.736083984375	-289.2808227539062	-294.4304504394531	1312.209350585938	-454.9478149414062	-251.6471252441406	1603.669677734375	-438.8359069824219	-124.9962387084961	1491.627685546875	-313.0623779296875	-352.2398986816406	1421.003662109375	-410.7018737792969	-189.4416351318359	1582.8974609375	-519.3789672851562	-80.64144134521484	1566.09619140625	-512.0991821289062	-45.93500518798828	1437.976806640625	-581.187255859375	-7.175954341888428	1222.315673828125	-596.58935546875	-94.82238006591797	1206.054077148438	-604.1478271484375	40.83826065063477	958.9971313476562	-509.1362915039062	4.171635627746582	936.7528076171875	-587.1908569335938	11.68092441558838	1105.688232421875	-594.7131958007812	41.28095245361328	765.2413330078125	-496.613525390625	28.05062866210938	861.696044921875	-571.8858642578125	61.96821594238281	871.221435546875	-511.4403686523438	-328.2354431152344	1584.164672851562	-264.9818115234375	-386.6298217773438	1513.507934570312	-231.2600402832031	-429.2010192871094	1222.191040039062	-230.3532104492188	-362.8310546875	1217.341064453125	-301.7661437988281	-327.4802856445312	976.630126953125	-133.8900604248047	-402.8486633300781	962.0384521484375	-164.6656646728516	-427.1258239746094	1148.992919921875	-201.7224426269531	-304.0802307128906	781.3851928710938	-126.5866241455078	-315.45068359375	868.0254516601562	-107.7353973388672	-382.2236938476562	861.7613525390625	-134.7140502929688	-272.2756652832031	1768.14990234375	-353.8581848144531	-66.95392608642578	1843.656127929688	-336.6282043457031	-157.4841461181641	1841.333251953125	-242.1585083007812	-186.3563385009766	1773.364013671875	-457.3569641113281	-82.75177764892578	1045.201416015625	-510.0723266601562	-277.263671875	1014.254272460938	-205.5269927978516	-188.5625610351562	1093.877319335938	-197.3651123046875	-26.81765365600586	1104.892578125	-407.0411071777344	-58.58740234375	541.2422485351562	-462.5126037597656	-67.22169494628906	686.9218139648438	-501.0924987792969	-124.8030014038086	28.75185012817383	-485.8348083496094	-112.9225006103516	288.2402038574219	-525.5006103515625	26.96621513366699	41.70471572875977	-306.0869750976562	-57.59039688110352	46.54872512817383	-324.0277099609375	-8.303546905517578	32.76174545288086	-433.881103515625	-217.0273742675781	33.71148681640625	-477.5718688964844	-129.7060394287109	541.9789428710938	-166.0346221923828	-206.3271026611328	812.87646484375	-176.2424468994141	-435.8609313964844	157.31103515625	-367.1546020507812	-206.5617980957031	429.8576049804688	-202.5731658935547	-250.0208587646484	56.62131881713867	-282.8446960449219	-268.1260681152344	66.36001586914062	-352.2031860351562	-362.9078979492188	88.86886596679688	-280.5794982910156	-442.0824279785156	188.9624786376953	-434.7335510253906	
280	2.79	-304.2030639648438	1112.998901367188	-373.4725952148438	-218.6733551025391	1127.283325195312	-477.15771484375	-264.9048767089844	1158.57763671875	-431.8930969238281	-96.77945709228516	1355.707397460938	-285.9655151367188	-286.8917846679688	1312.540283203125	-452.584228515625	-243.6174163818359	1603.934692382812	-435.9707641601562	-117.9412078857422	1491.715454101562	-309.4830932617188	-344.703369140625	1421.410278320312	-408.7662658691406	-180.9021759033203	1583.2041015625	-516.14794921875	-72.15922546386719	1566.388305664062	-508.0235595703125	-36.3813591003418	1438.3642578125	-576.6197509765625	4.223333835601807	1222.9140625	-590.8253173828125	-83.2366943359375	1206.085327148438	-599.6270141601562	52.01272583007812	959.7107543945312	-502.5392150878906	16.79690933227539	937.3855590820312	-581.260009765625	23.66622161865234	1106.44775390625	-588.5867309570312	53.17730712890625	766.033447265625	-490.1681823730469	40.76902389526367	862.4478759765625	-565.6742553710938	73.57646942138672	872.0306396484375	-504.5528869628906	-321.3527221679688	1584.307495117188	-262.6429138183594	-380.129638671875	1513.745361328125	-229.4618682861328	-423.6961975097656	1222.564575195312	-230.0357971191406	-356.7915954589844	1217.813598632812	-301.0216674804688	-322.4910583496094	976.8131103515625	-133.1944580078125	-397.8475341796875	962.2027587890625	-164.5936889648438	-421.9077758789062	1149.238159179688	-201.5798034667969	-298.9269714355469	781.621826171875	-126.1816635131836	-310.7398376464844	868.1851806640625	-107.2206039428711	-377.2600708007812	861.8174438476562	-134.7619934082031	-264.953369140625	1768.003662109375	-351.1591186523438	-59.62504577636719	1844.063110351562	-332.2519226074219	-151.2912292480469	1841.3701171875	-238.4419555664062	-177.9751739501953	1773.370849609375	-453.9372253417969	-76.23207855224609	1044.871459960938	-506.9000854492188	-271.1083679199219	1014.819519042969	-202.4624481201172	-182.2411499023438	1094.380249023438	-194.5092926025391	-19.94683837890625	1104.567138671875	-403.7684326171875	-55.65962219238281	540.8602905273438	-461.0295104980469	-63.32076263427734	686.6891479492188	-498.8880310058594	-124.8730697631836	28.87742805480957	-485.7305603027344	-111.624137878418	288.3839721679688	-524.75634765625	27.10594177246094	41.56571578979492	-305.9548645019531	-57.51383209228516	46.45630645751953	-323.9708557128906	-8.228211402893066	32.73874664306641	-433.9021606445312	-217.1267700195312	33.92957305908203	-477.47705078125	-117.7447891235352	544.8836059570312	-159.4535064697266	-198.363037109375	814.5382080078125	-171.2307891845703	-414.2893676757812	151.1250305175781	-356.9755249023438	-192.3443450927734	430.9515380859375	-195.1561584472656	-226.3814239501953	56.97900772094727	-269.4141845703125	-244.5116577148438	64.88583374023438	-339.0568237304688	-340.0433959960938	86.74790954589844	-268.4069519042969	-420.9983520507812	181.0469207763672	-425.1726379394531	
281	2.8	-297.7415771484375	1113.093627929688	-370.6598205566406	-212.2310485839844	1127.299438476562	-474.1441650390625	-258.6070861816406	1158.744262695312	-429.3429870605469	-90.09527587890625	1355.589111328125	-282.6248779296875	-279.4921569824219	1312.798706054688	-450.1593627929688	-235.6670074462891	1604.113891601562	-433.0370178222656	-110.9386215209961	1491.707885742188	-305.8824768066406	-337.2860717773438	1421.7255859375	-406.7708740234375	-172.4580383300781	1583.42236328125	-512.855712890625	-63.7849006652832	1566.588134765625	-503.9307250976562	-27.01971626281738	1438.646728515625	-572.0509033203125	15.30756950378418	1223.399780273438	-585.079833984375	-71.96427917480469	1206.004272460938	-594.9580078125	63.14981079101562	960.45361328125	-495.8425903320312	29.23356056213379	937.9404296875	-575.0950927734375	35.37950897216797	1107.124633789062	-582.4239501953125	65.21450805664062	766.8651123046875	-483.41015625	53.37369537353516	863.1610717773438	-559.2061157226562	85.21208190917969	872.8878784179688	-497.5265197753906	-314.5243530273438	1584.346801757812	-260.2290649414062	-373.6520385742188	1513.862426757812	-227.5789489746094	-418.0871887207031	1222.822265625	-229.4987335205078	-350.7268981933594	1218.160278320312	-300.1204223632812	-317.3569641113281	976.80859375	-132.5002288818359	-392.7582397460938	962.2476806640625	-164.3501892089844	-416.5423889160156	1149.370239257812	-201.2221069335938	-293.7999877929688	781.6512451171875	-125.8373947143555	-305.8753967285156	868.15478515625	-106.7452392578125	-372.2279052734375	861.74267578125	-134.6680450439453	-257.7056274414062	1767.804077148438	-348.4039001464844	-52.39540100097656	1844.382934570312	-327.82177734375	-145.1463317871094	1841.338012695312	-234.6723937988281	-169.6575469970703	1773.3115234375	-450.4960327148438	-69.87244415283203	1044.508544921875	-503.7135620117188	-264.9751281738281	1015.313293457031	-199.3202972412109	-175.9312591552734	1094.762573242188	-191.5641937255859	-13.1747350692749	1104.159057617188	-400.4821166992188	-52.65473175048828	540.4578857421875	-459.4822692871094	-59.40425109863281	686.435791015625	-496.6400756835938	-124.9552459716797	29.02751159667969	-485.607177734375	-110.2660980224609	288.53564453125	-523.9119262695312	27.26095771789551	41.37262725830078	-305.7776184082031	-57.4332389831543	46.33212280273438	-323.8920593261719	-8.159499168395996	32.7121696472168	-433.9159851074219	-217.2091064453125	34.17248916625977	-477.3551330566406	-106.1558609008789	547.687744140625	-152.9888458251953	-190.5796203613281	816.1192016601562	-166.2103271484375	-392.2747192382812	144.42138671875	-346.5110778808594	-178.3514251708984	431.8840942382812	-187.7595977783203	-202.3421936035156	57.30704498291016	-255.8520202636719	-220.4176177978516	63.35510635375977	-325.7615356445312	-316.7538146972656	84.26567077636719	-256.0741882324219	-399.4291687011719	172.5989990234375	-415.2748107910156	
282	2.81	-291.34326171875	1113.167602539062	-367.7383117675781	-205.7881927490234	1127.2744140625	-471.0296020507812	-252.3422698974609	1158.874633789062	-426.65625	-83.45764923095703	1355.396606445312	-279.2454833984375	-272.2038879394531	1312.986694335938	-447.6554565429688	-227.8016357421875	1604.213012695312	-430.0378112792969	-103.9992446899414	1491.618774414062	-302.2522277832031	-330.0034790039062	1421.9541015625	-404.7119445800781	-164.1073760986328	1583.557495117188	-509.5012512207031	-55.51974868774414	1566.69775390625	-499.8145751953125	-17.84890174865723	1438.827270507812	-567.475341796875	26.07573699951172	1223.778198242188	-579.364501953125	-61.00619125366211	1205.817260742188	-590.1703491210938	74.23341369628906	961.22802734375	-489.0459289550781	41.47605133056641	938.4210205078125	-568.7064208984375	46.80941772460938	1107.714599609375	-576.2376098632812	77.35606384277344	767.7346801757812	-476.339599609375	65.84664916992188	863.8351440429688	-552.4841918945312	96.85246276855469	873.7959594726562	-490.3564453125	-307.763671875	1584.300170898438	-257.7467041015625	-367.2105407714844	1513.872924804688	-225.6238098144531	-412.3594360351562	1222.968383789062	-228.768310546875	-344.5933532714844	1218.392211914062	-299.0600280761719	-312.1204223632812	976.626953125	-131.7911071777344	-387.5925903320312	962.1777954101562	-163.9674224853516	-411.0270385742188	1149.397827148438	-200.6720275878906	-288.7395324707031	781.4765625	-125.5258255004883	-300.908447265625	867.937744140625	-106.2728652954102	-367.1636352539062	861.5498657226562	-134.4546356201172	-250.5241851806641	1767.5625	-345.588134765625	-45.2845573425293	1844.60302734375	-323.3175354003906	-139.0471649169922	1841.239868164062	-230.8485260009766	-161.4071044921875	1773.1884765625	-447.0271606445312	-63.64736557006836	1044.122314453125	-500.5079650878906	-258.8333740234375	1015.750671386719	-196.0833587646484	-169.6191711425781	1095.03076171875	-188.5303802490234	-6.49358081817627	1103.686767578125	-397.1846923828125	-49.59794998168945	540.0355834960938	-457.897216796875	-55.49214935302734	686.16650390625	-494.3568725585938	-125.0485610961914	29.199951171875	-485.4654541015625	-108.8898162841797	288.6957702636719	-522.9945678710938	27.42308616638184	41.12464141845703	-305.5677795410156	-57.35346984863281	46.17948913574219	-323.7984924316406	-8.100353240966797	32.68233489990234	-433.9259643554688	-217.2684478759766	34.43951034545898	-477.1959533691406	-94.94771575927734	550.3756103515625	-146.63330078125	-182.9803771972656	817.6201782226562	-161.1935272216797	-369.838623046875	137.3107604980469	-335.7865600585938	-164.5974884033203	432.658935546875	-180.3872528076172	-178.0190887451172	57.65218734741211	-242.1301879882812	-195.8913269042969	61.83989334106445	-312.2666625976562	-293.1261291503906	81.52922058105469	-243.5666656494141	-377.3596496582031	163.721435546875	-405.0828857421875	
